<svg xmlns="http://www.w3.org/2000/svg" xmlns:xlink="http://www.w3.org/1999/xlink" width="800" zoomAndPan="magnify" viewBox="0 0 600 74.999997" height="100" preserveAspectRatio="xMidYMid meet" version="1.0"><defs><g/><clipPath id="id1"><path d="M 55.433594 7 L 134 7 L 134 71.4375 L 55.433594 71.4375 Z M 55.433594 7 " clip-rule="nonzero"/></clipPath><clipPath id="id2"><path d="M 128 24 L 136.433594 24 L 136.433594 46 L 128 46 Z M 128 24 " clip-rule="nonzero"/></clipPath></defs><rect x="-60" width="720" fill="#ffffff" y="-7.5" height="89.999996" fill-opacity="1"/><rect x="-60" width="720" fill="#8daccd" y="-7.5" height="89.999996" fill-opacity="1"/><rect x="-60" width="720" fill="#ffffff" y="-7.5" height="89.999996" fill-opacity="1"/><rect x="-60" width="720" fill="#8daccd" y="-7.5" height="89.999996" fill-opacity="1"/><g fill="#ffffff" fill-opacity="1"><g transform="translate(154.507603, 56.999994)"><g><path d="M 20.746094 -2.335938 C 20.464844 -2.449219 20.179688 -2.449219 19.894531 -2.449219 C 16.699219 -2.449219 13.851562 -2.164062 11.113281 -2.164062 L 7.636719 -2.164062 C 7.351562 -2.164062 7.011719 -2.109375 6.726562 -2.109375 C 6.269531 -2.109375 5.871094 -2.222656 5.871094 -2.90625 L 5.871094 -3.648438 C 5.871094 -4.390625 5.8125 -5.074219 5.8125 -5.8125 C 5.8125 -7.921875 5.929688 -10.089844 5.929688 -12.199219 C 5.929688 -14.308594 5.644531 -16.300781 5.644531 -18.296875 C 5.644531 -22.402344 6.042969 -26.164062 6.042969 -29.867188 C 6.042969 -32.546875 5.984375 -35.226562 5.8125 -37.90625 L 5.8125 -38.417969 C 5.8125 -39.957031 5.8125 -41.269531 4.046875 -41.269531 C 3.589844 -41.269531 3.078125 -41.039062 2.792969 -40.414062 C 2.792969 -39.214844 3.421875 -38.476562 3.421875 -37.335938 C 3.589844 -35.683594 3.703125 -34.144531 3.703125 -32.605469 L 3.703125 -28.84375 C 3.703125 -23.65625 3.304688 -21.203125 3.304688 -16.585938 L 3.304688 -13.792969 C 3.304688 -11.457031 3.304688 -8.664062 3.476562 -7.125 L 3.476562 -5.984375 C 3.476562 -3.421875 3.535156 -1.652344 3.703125 -0.113281 C 3.988281 -0.0585938 4.902344 -0.0585938 5.359375 -0.0585938 L 6.496094 -0.0585938 C 9.175781 -0.0585938 11.742188 0 14.421875 0 L 18.125 0 C 20.347656 0 21.488281 0.0585938 21.488281 -1.027344 C 21.488281 -1.652344 21.203125 -2.164062 20.746094 -2.335938 Z M 20.746094 -2.335938 "/></g></g><g transform="translate(175.426602, 56.999994)"><g><path d="M 5.871094 -34.996094 C 6.441406 -34.996094 6.613281 -35.796875 6.613281 -36.820312 C 6.613281 -37.960938 6.382812 -39.386719 6.269531 -40.015625 C 6.042969 -41.152344 5.300781 -42.066406 4.503906 -42.066406 C 3.875 -42.066406 3.703125 -40.015625 3.703125 -38.417969 C 3.703125 -35.113281 4.902344 -34.996094 5.871094 -34.996094 Z M 4.160156 -10.089844 L 4.160156 -0.910156 C 4.21875 0.0585938 4.789062 0.285156 5.1875 0.285156 C 6.097656 0.285156 6.667969 -0.457031 6.667969 -1.652344 C 6.667969 -5.8125 6.496094 -8.207031 6.496094 -16.644531 C 6.496094 -20.292969 6.554688 -24.453125 6.554688 -29.46875 C 6.554688 -30.4375 5.871094 -30.664062 5.527344 -30.664062 C 4.617188 -30.664062 4.046875 -29.925781 4.046875 -28.726562 Z M 4.160156 -10.089844 "/></g></g><g transform="translate(186.199602, 56.999994)"><g><path d="M 13.054688 -22.457031 C 13.453125 -22.171875 13.738281 -22.003906 13.964844 -22.003906 C 14.820312 -22.003906 15.105469 -23.371094 15.105469 -24.226562 C 15.105469 -25.535156 14.535156 -26.902344 13.851562 -27.871094 C 12.710938 -29.867188 10.714844 -30.550781 8.492188 -30.550781 C 6.496094 -30.550781 4.503906 -29.867188 2.964844 -28.785156 C 1.425781 -27.703125 1.253906 -25.707031 1.253906 -24.511719 C 1.253906 -21.773438 2.449219 -20.863281 4.105469 -18.296875 C 6.726562 -14.136719 13.222656 -11.285156 13.222656 -5.757812 C 12.9375 -3.421875 11.113281 -1.367188 8.890625 -1.367188 C 7.125 -1.367188 5.128906 -2.621094 4.503906 -4.046875 C 4.332031 -4.503906 3.988281 -5.128906 3.988281 -6.667969 C 3.988281 -7.066406 4.046875 -7.46875 4.046875 -7.867188 C 4.046875 -8.378906 3.875 -8.777344 3.589844 -9.0625 C 3.304688 -9.234375 3.019531 -9.347656 2.792969 -9.347656 C 1.710938 -9.347656 1.480469 -7.582031 1.480469 -6.667969 C 1.480469 -2.394531 5.015625 0.855469 9.347656 0.855469 C 9.746094 0.855469 10.144531 0.796875 10.546875 0.742188 C 14.363281 0.113281 15.445312 -3.304688 15.445312 -6.953125 C 15.445312 -12.199219 10.316406 -14.421875 7.921875 -17.441406 L 7.753906 -17.671875 C 7.011719 -18.582031 5.871094 -20.007812 5.242188 -20.917969 C 4.503906 -22.003906 3.761719 -23.085938 3.761719 -24.625 C 3.761719 -26.050781 5.300781 -27.871094 6.667969 -28.042969 C 7.296875 -28.214844 8.152344 -28.328125 9.007812 -28.328125 C 9.746094 -28.328125 10.429688 -28.214844 10.828125 -27.816406 C 11.96875 -27.304688 12.769531 -26.105469 12.769531 -24.796875 C 12.769531 -24.28125 12.710938 -23.941406 12.710938 -23.539062 C 12.710938 -23.085938 12.824219 -22.742188 13.054688 -22.457031 Z M 13.054688 -22.457031 "/></g></g><g transform="translate(202.786601, 56.999994)"><g><path d="M 14.476562 -4.675781 C 13.621094 -2.90625 12.996094 -1.480469 10.660156 -1.480469 L 10.429688 -1.480469 C 7.753906 -1.652344 6.726562 -4.675781 6.726562 -7.183594 C 6.726562 -9.175781 6.839844 -10.261719 6.839844 -11.398438 C 6.839844 -15.21875 6.839844 -18.808594 6.78125 -22.6875 L 6.78125 -23.769531 C 6.78125 -24.625 6.78125 -25.480469 6.839844 -26.390625 C 6.898438 -27.359375 7.46875 -27.019531 8.378906 -27.1875 L 12.484375 -27.359375 C 13.054688 -27.417969 13.339844 -27.644531 13.339844 -28.15625 C 13.339844 -28.84375 12.539062 -29.640625 11.570312 -29.640625 C 10.714844 -29.640625 9.746094 -29.527344 8.777344 -29.527344 C 7.695312 -29.527344 6.898438 -29.242188 6.839844 -29.867188 C 6.78125 -31.40625 6.726562 -32.832031 6.726562 -33.800781 C 6.726562 -34.882812 6.726562 -35.851562 6.726562 -37.164062 L 6.726562 -39.558594 C 6.726562 -40.070312 5.984375 -40.414062 5.242188 -40.414062 C 4.84375 -40.414062 4.902344 -40.300781 4.675781 -40.070312 C 4.273438 -39.558594 3.933594 -38.191406 3.933594 -37.507812 L 3.933594 -35.851562 C 3.933594 -31.464844 4.332031 -32.320312 4.332031 -29.695312 C 4.332031 -29.296875 4.046875 -29.410156 3.421875 -29.355469 C 2.050781 -29.355469 1.480469 -29.355469 0.796875 -29.582031 C 0.511719 -29.128906 0 -28.273438 0 -27.871094 C 0 -26.960938 1.367188 -26.675781 2.449219 -26.675781 L 4.273438 -26.675781 C 4.273438 -22.34375 4.332031 -18.125 4.503906 -13.792969 L 4.503906 -13.507812 C 4.503906 -11.515625 4.390625 -9.347656 4.390625 -7.125 C 4.390625 -5.359375 4.390625 -3.761719 5.242188 -2.222656 C 6.382812 -0.171875 8.605469 0.96875 10.714844 0.96875 C 11.683594 0.96875 12.597656 0.742188 13.507812 0.285156 C 15.332031 -0.628906 15.847656 -1.3125 16.472656 -3.703125 C 16.53125 -3.988281 16.585938 -4.21875 16.585938 -4.445312 C 16.585938 -5.414062 16.300781 -5.871094 15.675781 -5.871094 C 14.992188 -5.871094 14.878906 -5.074219 14.476562 -4.675781 Z M 14.476562 -4.675781 "/></g></g></g><g fill="#ffffff" fill-opacity="1"><g transform="translate(235.504575, 56.999994)"><g><path d="M 26.5625 -18.582031 C 25.878906 -21.375 24.679688 -23.824219 22.914062 -25.933594 C 22.058594 -27.019531 20.976562 -27.988281 19.722656 -28.785156 C 18.070312 -29.8125 16.300781 -30.324219 14.476562 -30.324219 C 13.28125 -30.324219 12.085938 -30.097656 10.828125 -29.640625 C 9.746094 -29.242188 8.777344 -28.726562 7.921875 -28.101562 C 5.300781 -26.105469 3.703125 -23.199219 2.394531 -20.179688 C 1.710938 -18.582031 1.425781 -17.5 1.425781 -15.960938 L 1.425781 -14.25 C 2.109375 -5.242188 6.269531 -0.511719 14.648438 0.855469 L 15.445312 0.855469 C 20.0625 0.855469 23.257812 -0.796875 24.910156 -4.046875 C 26.050781 -6.269531 26.734375 -8.492188 26.960938 -10.660156 C 27.074219 -11.742188 27.132812 -12.769531 27.132812 -13.738281 C 27.132812 -15.617188 26.960938 -17.214844 26.5625 -18.582031 Z M 24.679688 -13.453125 C 24.453125 -9.121094 23.425781 -5.585938 20.976562 -3.363281 C 19.777344 -2.222656 17.726562 -1.882812 15.277344 -1.882812 C 14.878906 -1.882812 14.476562 -1.882812 14.023438 -1.9375 C 9.976562 -2.566406 7.125 -4.390625 5.472656 -7.410156 C 4.273438 -9.519531 3.703125 -11.742188 3.703125 -14.023438 C 3.703125 -16.359375 3.933594 -18.695312 5.074219 -20.976562 C 5.8125 -22.34375 7.125 -23.824219 8.035156 -25.136719 C 9.175781 -26.21875 10.089844 -26.902344 11 -27.304688 C 12.199219 -27.757812 13.339844 -28.042969 14.476562 -28.042969 C 16.359375 -28.042969 18.070312 -27.304688 19.722656 -25.878906 L 21.601562 -23.941406 C 22.457031 -22.800781 23.085938 -21.546875 23.597656 -20.179688 C 24.339844 -18.238281 24.679688 -16.246094 24.679688 -14.25 Z M 24.679688 -13.453125 "/></g></g></g><g fill="#ffffff" fill-opacity="1"><g transform="translate(263.434565, 56.999994)"><g><path d="M 16.699219 -36.9375 C 15.902344 -40.46875 12.425781 -41.953125 10.375 -42.121094 C 8.777344 -42.121094 7.636719 -41.839844 6.554688 -41.382812 C 4.789062 -40.699219 4.046875 -39.613281 3.136719 -37.847656 C 2.28125 -36.308594 2.28125 -33.515625 2.28125 -29.640625 L 2.222656 -18.695312 C 2.222656 -17.785156 2.28125 -16.472656 2.335938 -14.878906 C 2.507812 -12.199219 2.621094 -10.660156 2.621094 -8.4375 C 2.621094 -7.066406 2.566406 -5.757812 2.449219 -4.445312 C 2.28125 -3.078125 2.222656 -2.851562 2.222656 -2.222656 C 2.222656 -1.195312 2.28125 -0.628906 2.335938 -0.457031 C 2.507812 0.398438 3.191406 0.742188 4.046875 0.742188 L 4.273438 0.683594 C 4.789062 -0.0585938 5.015625 -1.195312 5.015625 -2.679688 L 5.015625 -3.476562 C 4.960938 -3.988281 4.902344 -4.445312 4.902344 -4.902344 C 4.902344 -6.097656 4.960938 -7.238281 4.960938 -8.378906 C 4.960938 -9.460938 4.960938 -10.089844 4.902344 -11.515625 C 4.730469 -13.964844 4.730469 -15.789062 4.730469 -18.011719 C 5.8125 -18.183594 6.953125 -18.238281 8.550781 -18.238281 C 9.007812 -18.238281 9.804688 -18.238281 11 -18.183594 C 11.515625 -18.183594 12.769531 -18.296875 12.769531 -19.210938 L 12.769531 -19.4375 C 12.769531 -19.609375 12.710938 -19.777344 12.597656 -19.894531 C 12.199219 -20.40625 11.230469 -20.632812 9.574219 -20.632812 C 7.351562 -20.578125 6.097656 -20.519531 4.730469 -20.519531 C 4.730469 -21.261719 4.730469 -22.230469 4.675781 -23.371094 C 4.503906 -26.335938 4.503906 -26.675781 4.503906 -27.417969 C 4.503906 -29.070312 4.617188 -30.039062 4.617188 -31.636719 C 4.789062 -33.742188 4.789062 -36.023438 5.644531 -37.335938 C 7.011719 -39.101562 8.035156 -39.84375 10.03125 -39.84375 C 12.027344 -39.785156 13.90625 -38.476562 14.535156 -36.023438 C 14.535156 -35.28125 15.046875 -34.882812 15.675781 -34.882812 C 16.414062 -34.882812 16.816406 -35.167969 16.816406 -35.796875 C 16.816406 -36.082031 16.871094 -36.707031 16.699219 -36.9375 Z M 16.699219 -36.9375 "/></g></g><g transform="translate(278.767565, 56.999994)"><g/></g></g><g fill="#ffffff" fill-opacity="1"><g transform="translate(294.613556, 56.999994)"><g><path d="M 16.132812 -10.828125 C 16.132812 -12.367188 16.246094 -16.757812 16.246094 -19.609375 C 16.246094 -25.308594 14.933594 -30.097656 10.144531 -30.097656 C 9.175781 -30.097656 8.207031 -29.867188 7.238281 -29.46875 C 5.644531 -28.898438 2.90625 -27.359375 2.90625 -25.308594 C 2.90625 -24.453125 3.136719 -23.996094 3.589844 -23.996094 C 4.21875 -23.996094 5.1875 -24.910156 5.8125 -25.535156 L 6.042969 -25.765625 C 7.011719 -26.675781 8.777344 -27.589844 10.316406 -27.589844 C 10.714844 -27.589844 11.058594 -27.53125 11.398438 -27.417969 C 13.167969 -26.675781 13.453125 -23.824219 13.621094 -21.945312 C 13.621094 -21.773438 13.679688 -21.601562 13.679688 -21.433594 C 13.738281 -20.234375 13.738281 -18.980469 13.738281 -17.785156 L 13.738281 -16.816406 C 13.738281 -16.1875 13.679688 -15.847656 12.9375 -15.675781 C 11.171875 -15.277344 8.492188 -15.105469 6.839844 -14.476562 C 3.25 -13.28125 1.765625 -9.347656 1.765625 -6.097656 C 1.765625 -4.960938 2.050781 -3.820312 2.679688 -2.734375 C 3.761719 -0.96875 6.15625 0.570312 8.265625 0.742188 L 8.835938 0.742188 C 10.601562 0.742188 12.652344 0.796875 14.191406 -0.0585938 C 15.960938 -1.027344 16.414062 -2.679688 16.414062 -4.503906 C 16.414062 -6.496094 16.359375 -8.550781 16.1875 -10.316406 C 16.1875 -10.488281 16.132812 -10.660156 16.132812 -10.828125 Z M 12.425781 -2.050781 C 11.515625 -1.765625 10.660156 -1.710938 9.917969 -1.710938 L 9.289062 -1.710938 C 7.695312 -1.710938 6.726562 -2.28125 5.1875 -3.589844 C 4.445312 -4.273438 4.273438 -5.414062 4.273438 -6.269531 C 4.273438 -7.695312 4.558594 -9.0625 5.414062 -10.144531 C 7.238281 -12.425781 10.773438 -12.996094 13.738281 -12.996094 C 13.679688 -12.9375 13.679688 -12.769531 13.679688 -12.539062 C 13.679688 -12.027344 13.792969 -11.398438 13.792969 -10.773438 C 13.792969 -9.574219 14.023438 -6.042969 14.023438 -5.242188 C 14.023438 -3.875 13.792969 -2.566406 12.425781 -2.050781 Z M 12.425781 -2.050781 "/></g></g></g><g fill="#ffffff" fill-opacity="1"><g transform="translate(313.822542, 56.999994)"><g><path d="M 9.519531 -1.195312 C 7.183594 -2.109375 5.757812 -3.875 5.757812 -12.539062 C 5.757812 -17.785156 5.8125 -11.914062 5.8125 -41.722656 C 5.8125 -42.691406 5.128906 -42.921875 4.789062 -42.921875 C 3.875 -42.921875 3.304688 -42.179688 3.304688 -40.984375 C 3.304688 -36.707031 3.535156 -32.488281 3.535156 -25.363281 L 3.535156 -12.085938 C 3.589844 -7.636719 3.589844 -1.367188 7.238281 0.457031 L 8.605469 1.140625 C 8.890625 1.195312 9.175781 1.253906 9.347656 1.253906 C 9.691406 1.253906 9.976562 1.140625 10.203125 0.855469 L 10.488281 0.0585938 Z M 9.519531 -1.195312 "/></g></g></g><g fill="#ffffff" fill-opacity="1"><g transform="translate(324.538537, 56.999994)"><g><path d="M 9.519531 -1.195312 C 7.183594 -2.109375 5.757812 -3.875 5.757812 -12.539062 C 5.757812 -17.785156 5.8125 -11.914062 5.8125 -41.722656 C 5.8125 -42.691406 5.128906 -42.921875 4.789062 -42.921875 C 3.875 -42.921875 3.304688 -42.179688 3.304688 -40.984375 C 3.304688 -36.707031 3.535156 -32.488281 3.535156 -25.363281 L 3.535156 -12.085938 C 3.589844 -7.636719 3.589844 -1.367188 7.238281 0.457031 L 8.605469 1.140625 C 8.890625 1.195312 9.175781 1.253906 9.347656 1.253906 C 9.691406 1.253906 9.976562 1.140625 10.203125 0.855469 L 10.488281 0.0585938 Z M 9.519531 -1.195312 "/></g></g></g><g fill="#ffffff" fill-opacity="1"><g transform="translate(351.100512, 56.999994)"><g><path d="M 20.863281 -23.3125 C 19.664062 -28.328125 18.011719 -30.039062 13.28125 -30.039062 L 11.914062 -30.039062 C 7.125 -30.039062 3.875 -26.734375 3.25 -22.117188 C 3.019531 -20.464844 2.964844 -18.753906 2.964844 -17.101562 C 2.964844 -15.046875 3.136719 -13.566406 3.136719 -12.027344 C 3.304688 -9.121094 3.421875 -6.726562 4.730469 -4.046875 C 6.328125 -0.855469 9.289062 0.796875 12.425781 0.796875 C 14.421875 0.796875 16.585938 0.171875 18.183594 -0.742188 L 18.183594 1.425781 C 18.183594 4.332031 18.355469 7.125 18.355469 10.03125 C 18.355469 11.800781 18.296875 13.621094 18.238281 15.390625 C 18.238281 16.472656 18.011719 17.441406 18.011719 18.410156 C 18.011719 19.152344 18.125 19.835938 18.640625 20.464844 C 18.695312 20.519531 18.753906 20.519531 18.925781 20.519531 C 19.664062 20.519531 20.691406 19.949219 20.691406 19.210938 L 20.691406 18.183594 C 20.863281 16.359375 20.976562 14.476562 20.976562 12.652344 C 20.976562 9.859375 20.691406 7.636719 20.691406 5.414062 C 20.691406 2.050781 21.089844 -1.195312 21.089844 -4.558594 C 21.089844 -11.230469 21.03125 -17.15625 20.863281 -23.3125 Z M 18.296875 -10.773438 C 17.953125 -8.265625 18.753906 -5.359375 16.871094 -3.304688 C 15.730469 -2.109375 14.421875 -1.480469 12.882812 -1.480469 C 11.628906 -1.480469 10.488281 -1.882812 9.40625 -2.734375 C 7.183594 -4.503906 6.214844 -5.984375 5.929688 -8.777344 C 5.644531 -11.683594 5.585938 -14.648438 5.585938 -18.296875 C 5.585938 -20.40625 5.644531 -22.570312 6.613281 -24.453125 C 7.695312 -26.5625 10.089844 -28.101562 12.539062 -28.101562 C 12.9375 -28.101562 14.363281 -27.757812 14.761719 -27.589844 C 17.671875 -26.847656 18.410156 -23.996094 18.410156 -21.148438 C 18.46875 -19.835938 18.46875 -18.753906 18.46875 -17.441406 C 18.46875 -15.21875 18.410156 -12.996094 18.296875 -10.773438 Z M 18.296875 -10.773438 "/></g></g></g><g fill="#ffffff" fill-opacity="1"><g transform="translate(375.439507, 56.999994)"><g><path d="M 19.722656 -26.21875 C 19.777344 -26.847656 19.894531 -27.589844 19.894531 -28.214844 C 19.894531 -29.296875 19.09375 -29.980469 18.125 -29.980469 C 17.101562 -29.980469 17.101562 -28.386719 17.101562 -27.644531 C 17.101562 -21.773438 17.839844 -17.15625 17.839844 -12.085938 C 17.839844 -7.351562 17.386719 -1.425781 12.425781 -1.425781 C 6.15625 -1.425781 6.15625 -6.554688 5.984375 -13.394531 C 5.984375 -14.023438 5.929688 -14.476562 5.929688 -15.105469 C 5.871094 -17.441406 5.8125 -19.210938 5.8125 -21.546875 C 5.8125 -23.882812 5.929688 -26.21875 5.929688 -28.558594 C 5.929688 -29.296875 5.1875 -30.097656 4.445312 -30.097656 C 3.019531 -30.097656 3.019531 -26.21875 3.019531 -24.679688 L 3.019531 -24.167969 C 3.019531 -21.71875 3.363281 -19.664062 3.363281 -17.15625 L 3.363281 -16.015625 C 3.363281 -13.453125 3.589844 -10.945312 3.761719 -8.378906 C 3.933594 -5.699219 3.988281 -3.535156 5.644531 -1.765625 C 7.46875 0.285156 10.601562 1.027344 13.109375 1.027344 C 14.535156 1.027344 16.015625 0.628906 17.328125 0.171875 C 19.949219 -1.539062 20.121094 -7.183594 20.121094 -10.773438 C 20.121094 -12.996094 20.121094 -14.308594 19.949219 -22.972656 Z M 19.722656 -26.21875 "/></g></g></g><g fill="#ffffff" fill-opacity="1"><g transform="translate(398.752493, 56.999994)"><g><path d="M 16.871094 -6.839844 C 16.1875 -6.78125 15.675781 -6.328125 15.332031 -5.472656 L 15.277344 -5.242188 C 15.105469 -4.730469 15.21875 -3.933594 14.878906 -3.25 C 14.308594 -2.164062 13.222656 -1.824219 11.914062 -1.824219 C 6.496094 -1.824219 4.558594 -4.332031 4.558594 -9.40625 C 4.558594 -11 4.445312 -12.199219 4.445312 -13.738281 C 4.445312 -14.25 4.445312 -14.820312 4.503906 -15.445312 C 6.042969 -15.730469 7.753906 -15.847656 11.800781 -15.847656 L 12.597656 -15.847656 L 13.054688 -15.789062 C 13.566406 -15.730469 14.25 -15.5625 15.105469 -15.5625 C 16.074219 -15.5625 16.757812 -15.902344 17.101562 -16.585938 L 17.15625 -16.757812 C 16.414062 -27.703125 15.277344 -30.609375 9.234375 -30.609375 C 4.160156 -30.609375 1.824219 -27.589844 1.824219 -18.011719 C 1.824219 -13.507812 1.9375 -5.242188 3.421875 -3.476562 L 3.535156 -3.25 C 4.960938 -0.226562 8.207031 0.628906 11 0.628906 L 11.230469 0.628906 C 14.707031 0.34375 17.613281 -0.285156 17.613281 -5.128906 C 17.613281 -6.042969 17.386719 -6.613281 16.871094 -6.839844 Z M 5.984375 -26.902344 C 6.613281 -27.757812 7.636719 -28.042969 9.175781 -28.214844 L 9.632812 -28.214844 C 10.945312 -28.214844 11.515625 -28.101562 12.367188 -27.644531 C 13.453125 -27.019531 13.851562 -25.59375 14.023438 -23.371094 C 14.191406 -22.402344 14.25 -20.691406 14.308594 -18.011719 C 12.710938 -17.953125 11.457031 -17.898438 10.144531 -17.898438 C 7.808594 -18.011719 6.042969 -17.953125 4.503906 -18.011719 C 4.390625 -18.980469 4.332031 -20.007812 4.332031 -21.148438 C 4.332031 -23.199219 4.675781 -25.078125 5.984375 -26.902344 Z M 5.984375 -26.902344 "/></g></g></g><g fill="#ffffff" fill-opacity="1"><g transform="translate(417.847485, 56.999994)"><g><path d="M 13.054688 -22.457031 C 13.453125 -22.171875 13.738281 -22.003906 13.964844 -22.003906 C 14.820312 -22.003906 15.105469 -23.371094 15.105469 -24.226562 C 15.105469 -25.535156 14.535156 -26.902344 13.851562 -27.871094 C 12.710938 -29.867188 10.714844 -30.550781 8.492188 -30.550781 C 6.496094 -30.550781 4.503906 -29.867188 2.964844 -28.785156 C 1.425781 -27.703125 1.253906 -25.707031 1.253906 -24.511719 C 1.253906 -21.773438 2.449219 -20.863281 4.105469 -18.296875 C 6.726562 -14.136719 13.222656 -11.285156 13.222656 -5.757812 C 12.9375 -3.421875 11.113281 -1.367188 8.890625 -1.367188 C 7.125 -1.367188 5.128906 -2.621094 4.503906 -4.046875 C 4.332031 -4.503906 3.988281 -5.128906 3.988281 -6.667969 C 3.988281 -7.066406 4.046875 -7.46875 4.046875 -7.867188 C 4.046875 -8.378906 3.875 -8.777344 3.589844 -9.0625 C 3.304688 -9.234375 3.019531 -9.347656 2.792969 -9.347656 C 1.710938 -9.347656 1.480469 -7.582031 1.480469 -6.667969 C 1.480469 -2.394531 5.015625 0.855469 9.347656 0.855469 C 9.746094 0.855469 10.144531 0.796875 10.546875 0.742188 C 14.363281 0.113281 15.445312 -3.304688 15.445312 -6.953125 C 15.445312 -12.199219 10.316406 -14.421875 7.921875 -17.441406 L 7.753906 -17.671875 C 7.011719 -18.582031 5.871094 -20.007812 5.242188 -20.917969 C 4.503906 -22.003906 3.761719 -23.085938 3.761719 -24.625 C 3.761719 -26.050781 5.300781 -27.871094 6.667969 -28.042969 C 7.296875 -28.214844 8.152344 -28.328125 9.007812 -28.328125 C 9.746094 -28.328125 10.429688 -28.214844 10.828125 -27.816406 C 11.96875 -27.304688 12.769531 -26.105469 12.769531 -24.796875 C 12.769531 -24.28125 12.710938 -23.941406 12.710938 -23.539062 C 12.710938 -23.085938 12.824219 -22.742188 13.054688 -22.457031 Z M 13.054688 -22.457031 "/></g></g></g><g fill="#ffffff" fill-opacity="1"><g transform="translate(434.434481, 56.999994)"><g><path d="M 14.476562 -4.675781 C 13.621094 -2.90625 12.996094 -1.480469 10.660156 -1.480469 L 10.429688 -1.480469 C 7.753906 -1.652344 6.726562 -4.675781 6.726562 -7.183594 C 6.726562 -9.175781 6.839844 -10.261719 6.839844 -11.398438 C 6.839844 -15.21875 6.839844 -18.808594 6.78125 -22.6875 L 6.78125 -23.769531 C 6.78125 -24.625 6.78125 -25.480469 6.839844 -26.390625 C 6.898438 -27.359375 7.46875 -27.019531 8.378906 -27.1875 L 12.484375 -27.359375 C 13.054688 -27.417969 13.339844 -27.644531 13.339844 -28.15625 C 13.339844 -28.84375 12.539062 -29.640625 11.570312 -29.640625 C 10.714844 -29.640625 9.746094 -29.527344 8.777344 -29.527344 C 7.695312 -29.527344 6.898438 -29.242188 6.839844 -29.867188 C 6.78125 -31.40625 6.726562 -32.832031 6.726562 -33.800781 C 6.726562 -34.882812 6.726562 -35.851562 6.726562 -37.164062 L 6.726562 -39.558594 C 6.726562 -40.070312 5.984375 -40.414062 5.242188 -40.414062 C 4.84375 -40.414062 4.902344 -40.300781 4.675781 -40.070312 C 4.273438 -39.558594 3.933594 -38.191406 3.933594 -37.507812 L 3.933594 -35.851562 C 3.933594 -31.464844 4.332031 -32.320312 4.332031 -29.695312 C 4.332031 -29.296875 4.046875 -29.410156 3.421875 -29.355469 C 2.050781 -29.355469 1.480469 -29.355469 0.796875 -29.582031 C 0.511719 -29.128906 0 -28.273438 0 -27.871094 C 0 -26.960938 1.367188 -26.675781 2.449219 -26.675781 L 4.273438 -26.675781 C 4.273438 -22.34375 4.332031 -18.125 4.503906 -13.792969 L 4.503906 -13.507812 C 4.503906 -11.515625 4.390625 -9.347656 4.390625 -7.125 C 4.390625 -5.359375 4.390625 -3.761719 5.242188 -2.222656 C 6.382812 -0.171875 8.605469 0.96875 10.714844 0.96875 C 11.683594 0.96875 12.597656 0.742188 13.507812 0.285156 C 15.332031 -0.628906 15.847656 -1.3125 16.472656 -3.703125 C 16.53125 -3.988281 16.585938 -4.21875 16.585938 -4.445312 C 16.585938 -5.414062 16.300781 -5.871094 15.675781 -5.871094 C 14.992188 -5.871094 14.878906 -5.074219 14.476562 -4.675781 Z M 14.476562 -4.675781 "/></g></g></g><g fill="#ffffff" fill-opacity="1"><g transform="translate(451.306481, 56.999994)"><g><path d="M 5.871094 -34.996094 C 6.441406 -34.996094 6.613281 -35.796875 6.613281 -36.820312 C 6.613281 -37.960938 6.382812 -39.386719 6.269531 -40.015625 C 6.042969 -41.152344 5.300781 -42.066406 4.503906 -42.066406 C 3.875 -42.066406 3.703125 -40.015625 3.703125 -38.417969 C 3.703125 -35.113281 4.902344 -34.996094 5.871094 -34.996094 Z M 4.160156 -10.089844 L 4.160156 -0.910156 C 4.21875 0.0585938 4.789062 0.285156 5.1875 0.285156 C 6.097656 0.285156 6.667969 -0.457031 6.667969 -1.652344 C 6.667969 -5.8125 6.496094 -8.207031 6.496094 -16.644531 C 6.496094 -20.292969 6.554688 -24.453125 6.554688 -29.46875 C 6.554688 -30.4375 5.871094 -30.664062 5.527344 -30.664062 C 4.617188 -30.664062 4.046875 -29.925781 4.046875 -28.726562 Z M 4.160156 -10.089844 "/></g></g></g><g fill="#ffffff" fill-opacity="1"><g transform="translate(462.079491, 56.999994)"><g><path d="M 26.5625 -18.582031 C 25.878906 -21.375 24.679688 -23.824219 22.914062 -25.933594 C 22.058594 -27.019531 20.976562 -27.988281 19.722656 -28.785156 C 18.070312 -29.8125 16.300781 -30.324219 14.476562 -30.324219 C 13.28125 -30.324219 12.085938 -30.097656 10.828125 -29.640625 C 9.746094 -29.242188 8.777344 -28.726562 7.921875 -28.101562 C 5.300781 -26.105469 3.703125 -23.199219 2.394531 -20.179688 C 1.710938 -18.582031 1.425781 -17.5 1.425781 -15.960938 L 1.425781 -14.25 C 2.109375 -5.242188 6.269531 -0.511719 14.648438 0.855469 L 15.445312 0.855469 C 20.0625 0.855469 23.257812 -0.796875 24.910156 -4.046875 C 26.050781 -6.269531 26.734375 -8.492188 26.960938 -10.660156 C 27.074219 -11.742188 27.132812 -12.769531 27.132812 -13.738281 C 27.132812 -15.617188 26.960938 -17.214844 26.5625 -18.582031 Z M 24.679688 -13.453125 C 24.453125 -9.121094 23.425781 -5.585938 20.976562 -3.363281 C 19.777344 -2.222656 17.726562 -1.882812 15.277344 -1.882812 C 14.878906 -1.882812 14.476562 -1.882812 14.023438 -1.9375 C 9.976562 -2.566406 7.125 -4.390625 5.472656 -7.410156 C 4.273438 -9.519531 3.703125 -11.742188 3.703125 -14.023438 C 3.703125 -16.359375 3.933594 -18.695312 5.074219 -20.976562 C 5.8125 -22.34375 7.125 -23.824219 8.035156 -25.136719 C 9.175781 -26.21875 10.089844 -26.902344 11 -27.304688 C 12.199219 -27.757812 13.339844 -28.042969 14.476562 -28.042969 C 16.359375 -28.042969 18.070312 -27.304688 19.722656 -25.878906 L 21.601562 -23.941406 C 22.457031 -22.800781 23.085938 -21.546875 23.597656 -20.179688 C 24.339844 -18.238281 24.679688 -16.246094 24.679688 -14.25 Z M 24.679688 -13.453125 "/></g></g></g><g fill="#ffffff" fill-opacity="1"><g transform="translate(490.009481, 56.999994)"><g><path d="M 18.523438 -22.855469 C 18.523438 -25.078125 18.523438 -27.304688 17.214844 -28.613281 C 15.902344 -29.925781 13.90625 -30.382812 11.914062 -30.382812 C 10.828125 -30.382812 9.691406 -30.210938 8.835938 -29.980469 C 5.929688 -29.128906 3.820312 -27.929688 3.535156 -25.023438 C 3.25 -22.34375 3.136719 -19.609375 3.136719 -16.871094 L 3.136719 -4.617188 C 3.136719 -3.019531 3.136719 -0.457031 4.21875 0 C 4.503906 0.171875 4.730469 0.171875 4.902344 0.171875 C 5.757812 0.171875 5.757812 -1.765625 5.757812 -3.535156 L 5.757812 -8.378906 C 5.757812 -10.773438 5.757812 -13.109375 5.644531 -15.445312 C 5.585938 -17.269531 5.527344 -19.152344 5.527344 -20.976562 C 5.527344 -22.117188 5.644531 -23.027344 5.8125 -24.167969 C 5.984375 -26.21875 9.347656 -27.871094 11.398438 -28.15625 C 14.59375 -28.15625 15.617188 -27.132812 16.015625 -23.882812 C 16.246094 -22.003906 16.300781 -20.179688 16.300781 -18.183594 C 16.300781 -15.730469 16.1875 -13.222656 16.1875 -10.773438 L 16.1875 -4.960938 C 16.1875 -2.679688 16.300781 0 17.726562 0 C 19.039062 0 18.808594 -1.652344 18.808594 -3.648438 C 18.808594 -5.871094 18.582031 -8.320312 18.523438 -9.40625 Z M 18.523438 -22.855469 "/></g></g></g><g fill="#ffffff" fill-opacity="1"><g transform="translate(512.125461, 56.999994)"><g><path d="M 13.054688 -22.457031 C 13.453125 -22.171875 13.738281 -22.003906 13.964844 -22.003906 C 14.820312 -22.003906 15.105469 -23.371094 15.105469 -24.226562 C 15.105469 -25.535156 14.535156 -26.902344 13.851562 -27.871094 C 12.710938 -29.867188 10.714844 -30.550781 8.492188 -30.550781 C 6.496094 -30.550781 4.503906 -29.867188 2.964844 -28.785156 C 1.425781 -27.703125 1.253906 -25.707031 1.253906 -24.511719 C 1.253906 -21.773438 2.449219 -20.863281 4.105469 -18.296875 C 6.726562 -14.136719 13.222656 -11.285156 13.222656 -5.757812 C 12.9375 -3.421875 11.113281 -1.367188 8.890625 -1.367188 C 7.125 -1.367188 5.128906 -2.621094 4.503906 -4.046875 C 4.332031 -4.503906 3.988281 -5.128906 3.988281 -6.667969 C 3.988281 -7.066406 4.046875 -7.46875 4.046875 -7.867188 C 4.046875 -8.378906 3.875 -8.777344 3.589844 -9.0625 C 3.304688 -9.234375 3.019531 -9.347656 2.792969 -9.347656 C 1.710938 -9.347656 1.480469 -7.582031 1.480469 -6.667969 C 1.480469 -2.394531 5.015625 0.855469 9.347656 0.855469 C 9.746094 0.855469 10.144531 0.796875 10.546875 0.742188 C 14.363281 0.113281 15.445312 -3.304688 15.445312 -6.953125 C 15.445312 -12.199219 10.316406 -14.421875 7.921875 -17.441406 L 7.753906 -17.671875 C 7.011719 -18.582031 5.871094 -20.007812 5.242188 -20.917969 C 4.503906 -22.003906 3.761719 -23.085938 3.761719 -24.625 C 3.761719 -26.050781 5.300781 -27.871094 6.667969 -28.042969 C 7.296875 -28.214844 8.152344 -28.328125 9.007812 -28.328125 C 9.746094 -28.328125 10.429688 -28.214844 10.828125 -27.816406 C 11.96875 -27.304688 12.769531 -26.105469 12.769531 -24.796875 C 12.769531 -24.28125 12.710938 -23.941406 12.710938 -23.539062 C 12.710938 -23.085938 12.824219 -22.742188 13.054688 -22.457031 Z M 13.054688 -22.457031 "/></g></g></g><g clip-path="url(#id1)"><path fill="#ffffff" d="M 132.847656 31.066406 C 131.707031 28.488281 129.875 26.589844 127.667969 25.3125 C 125.761719 24.210938 123.570312 23.578125 121.3125 23.378906 L 121.480469 22.039062 C 121.480469 21.269531 121.265625 20.507812 120.914062 19.816406 C 120.578125 19.152344 120.121094 18.550781 119.621094 18.058594 C 119.03125 17.472656 118.367188 16.984375 117.648438 16.632812 C 116.902344 16.265625 116.09375 16.042969 115.238281 16 C 115.027344 15.992188 114.019531 16.175781 113.53125 16.269531 L 112.40625 13.175781 C 111.566406 11.976562 110.496094 10.996094 109.304688 10.195312 C 108.136719 9.40625 106.847656 8.796875 105.546875 8.3125 C 102.835938 7.308594 99.679688 6.9375 96.582031 7.199219 C 93.480469 7.464844 90.433594 8.367188 87.941406 9.898438 C 87.058594 10.4375 86.179688 11.003906 85.367188 11.648438 C 84.808594 12.09375 84.277344 12.578125 83.796875 13.117188 C 83.667969 13.257812 83.234375 13.898438 82.953125 14.3125 C 82.53125 14.007812 81.847656 13.523438 81.65625 13.429688 C 80.921875 13.074219 80.125 12.796875 79.304688 12.652344 C 78.460938 12.5 77.597656 12.484375 76.761719 12.644531 C 75.65625 12.855469 74.628906 13.347656 73.742188 14.039062 C 72.878906 14.71875 72.152344 15.582031 71.621094 16.5625 L 71.0625 18.210938 C 70.433594 18.054688 69.539062 17.824219 69.371094 17.816406 C 68.558594 17.78125 67.710938 17.917969 66.894531 18.179688 C 66.101562 18.429688 65.34375 18.800781 64.683594 19.242188 C 63.464844 20.058594 62.394531 21.136719 61.554688 22.382812 C 60.726562 23.617188 60.117188 25.011719 59.808594 26.464844 L 59.730469 29.171875 C 59.445312 29.722656 58.246094 30.304688 57.359375 31.15625 C 56.933594 31.566406 56.5625 32.019531 56.3125 32.519531 C 55.484375 34.167969 55.464844 35.394531 55.839844 36.410156 C 56.335938 37.757812 57.671875 38.722656 58.984375 39.882812 L 58.949219 39.933594 L 58.015625 41.992188 C 57.679688 42.964844 57.457031 43.953125 57.34375 44.953125 C 57.230469 45.949219 57.226562 46.957031 57.328125 47.980469 C 57.800781 52.769531 60.25 56.214844 63.589844 58.101562 C 66.8125 59.925781 70.882812 60.296875 74.824219 58.988281 C 75.113281 60.082031 75.308594 61.1875 75.429688 62.304688 C 75.574219 63.632812 75.605469 64.972656 75.539062 66.324219 L 75.210938 68.960938 C 75.128906 69.363281 74.714844 70.265625 74.730469 70.488281 C 74.753906 70.851562 74.941406 71.058594 75.144531 71.179688 C 75.3125 71.28125 75.640625 71.433594 76.097656 71.144531 C 77.589844 70.203125 78.917969 68.859375 80.015625 67.328125 C 81.085938 65.832031 81.9375 64.15625 82.5 62.519531 L 83.199219 59.753906 L 85.414062 61.035156 C 86.5625 61.507812 87.882812 61.792969 89.207031 61.847656 C 90.554688 61.898438 91.902344 61.707031 93.089844 61.230469 C 94.140625 60.804688 95.175781 60.269531 96.148438 59.628906 C 97.121094 58.988281 98.03125 58.234375 98.816406 57.386719 L 99.957031 55.949219 C 100.109375 56.167969 100.28125 56.394531 100.414062 56.492188 C 100.847656 56.796875 101.347656 57.011719 101.867188 57.140625 C 102.363281 57.265625 102.878906 57.316406 103.375 57.304688 C 104.117188 57.285156 104.703125 57.117188 105.207031 56.871094 C 106.183594 56.394531 106.773438 55.53125 107.765625 54.917969 C 108.335938 55.246094 109.300781 55.824219 109.496094 55.894531 C 110.511719 56.253906 111.539062 56.484375 112.578125 56.597656 C 113.613281 56.707031 114.660156 56.703125 115.722656 56.585938 C 117.738281 56.367188 119.589844 55.78125 121.203125 54.800781 C 122.816406 53.824219 124.195312 52.449219 125.265625 50.648438 L 126.550781 47.25 C 127.070312 46.6875 128.328125 46.582031 129.238281 46.152344 C 129.570312 45.996094 129.871094 45.8125 130.117188 45.59375 C 132.0625 43.859375 133.273438 41.378906 133.726562 38.738281 C 134.171875 36.140625 133.878906 33.390625 132.847656 31.066406 Z M 132.113281 38.460938 C 131.726562 40.726562 130.703125 42.867188 129.03125 44.359375 C 128.363281 44.957031 127.117188 45.105469 126.28125 45.492188 C 125.902344 45.664062 125.585938 45.875 125.355469 46.125 C 125.152344 46.34375 124.96875 46.652344 124.8125 47.023438 C 124.460938 47.871094 124.253906 49.136719 123.863281 49.800781 C 122.9375 51.359375 121.75 52.546875 120.359375 53.390625 C 118.941406 54.25 117.316406 54.757812 115.546875 54.949219 C 114.601562 55.050781 113.671875 55.058594 112.75 54.957031 C 111.839844 54.859375 110.933594 54.65625 110.039062 54.339844 C 109.847656 54.269531 108.796875 53.605469 108.355469 53.359375 C 107.851562 53.082031 107.4375 53.222656 107.386719 53.246094 C 106.320312 53.78125 105.695312 54.609375 104.839844 55.183594 C 104.445312 55.449219 103.984375 55.640625 103.332031 55.65625 C 102.980469 55.664062 102.617188 55.632812 102.261719 55.542969 C 101.9375 55.460938 101.625 55.332031 101.355469 55.140625 C 101.089844 54.953125 100.933594 54.375 100.710938 54.183594 C 100.335938 53.859375 99.929688 53.789062 99.464844 54.082031 C 99.199219 54.25 98.9375 54.503906 98.691406 54.808594 C 98.308594 55.28125 97.957031 55.894531 97.617188 56.261719 C 96.921875 57.015625 96.113281 57.679688 95.25 58.253906 C 94.371094 58.832031 93.429688 59.316406 92.480469 59.699219 C 91.5 60.09375 90.382812 60.242188 89.269531 60.199219 C 88.140625 60.15625 87.011719 59.910156 86.027344 59.507812 L 84.171875 58.433594 C 83.941406 58.253906 83.671875 57.726562 83.464844 57.570312 C 83.230469 57.390625 82.996094 57.34375 82.796875 57.359375 C 82.53125 57.378906 82.238281 57.488281 82.03125 57.878906 C 81.828125 58.265625 81.675781 58.734375 81.554688 59.234375 C 81.332031 60.148438 81.222656 61.195312 80.953125 61.980469 C 80.4375 63.472656 79.664062 65 78.6875 66.367188 C 78.15625 67.105469 77.566406 67.800781 76.925781 68.410156 L 77.171875 66.402344 C 77.242188 64.96875 77.210938 63.539062 77.058594 62.128906 C 76.90625 60.707031 76.632812 59.300781 76.226562 57.914062 C 76.144531 57.636719 75.929688 57.433594 75.671875 57.359375 C 75.453125 57.179688 75.152344 57.121094 74.871094 57.226562 C 71.214844 58.609375 67.390625 58.359375 64.390625 56.664062 C 61.480469 55.015625 59.367188 51.996094 58.957031 47.820312 C 58.867188 46.914062 58.871094 46.019531 58.96875 45.136719 C 59.070312 44.257812 59.265625 43.390625 59.5625 42.53125 L 60.375 40.75 C 60.402344 40.699219 60.621094 40.351562 60.703125 40.207031 C 61.039062 39.632812 60.613281 39.148438 60.589844 39.125 C 59.339844 37.945312 57.855469 37.140625 57.375 35.835938 C 57.125 35.164062 57.222656 34.355469 57.773438 33.261719 C 57.941406 32.921875 58.203125 32.625 58.488281 32.347656 C 59.527344 31.347656 60.851562 30.574219 61.183594 29.925781 C 61.292969 29.710938 61.371094 29.40625 61.398438 29.039062 C 61.449219 28.34375 61.296875 27.328125 61.410156 26.8125 C 61.675781 25.5625 62.195312 24.367188 62.910156 23.308594 C 63.628906 22.242188 64.542969 21.3125 65.589844 20.617188 C 66.125 20.257812 66.746094 19.953125 67.390625 19.75 C 68.019531 19.546875 68.671875 19.4375 69.300781 19.464844 C 69.480469 19.472656 70.613281 19.800781 71.078125 19.914062 C 71.621094 20.042969 71.976562 19.808594 72.007812 19.78125 C 72.167969 19.648438 72.34375 19.402344 72.480469 19.070312 C 72.703125 18.546875 72.878906 17.6875 73.058594 17.351562 C 73.480469 16.570312 74.058594 15.878906 74.746094 15.34375 C 75.429688 14.808594 76.21875 14.425781 77.070312 14.261719 C 77.710938 14.136719 78.371094 14.15625 79.019531 14.273438 C 79.6875 14.394531 80.34375 14.621094 80.945312 14.914062 C 81.226562 15.050781 82.117188 15.808594 82.5625 16.035156 C 82.859375 16.1875 83.113281 16.203125 83.261719 16.179688 C 83.410156 16.160156 83.664062 16.0625 83.910156 15.796875 C 84.238281 15.433594 84.820312 14.433594 85.011719 14.21875 C 85.433594 13.75 85.894531 13.328125 86.378906 12.941406 C 87.144531 12.335938 87.964844 11.8125 88.792969 11.304688 C 91.078125 9.902344 93.875 9.082031 96.71875 8.839844 C 99.574219 8.597656 102.484375 8.933594 104.984375 9.859375 C 106.164062 10.296875 107.335938 10.851562 108.398438 11.566406 C 109.421875 12.253906 110.34375 13.09375 111.070312 14.125 C 111.417969 14.625 111.824219 16.441406 112.179688 17.179688 C 112.335938 17.5 112.515625 17.703125 112.65625 17.804688 C 112.761719 17.875 113.019531 17.996094 113.40625 17.960938 C 113.859375 17.921875 114.914062 17.636719 115.160156 17.648438 C 115.789062 17.675781 116.382812 17.84375 116.929688 18.113281 C 117.496094 18.390625 118.011719 18.777344 118.476562 19.234375 C 118.851562 19.605469 119.203125 20.0625 119.457031 20.5625 C 119.691406 21.023438 119.84375 21.527344 119.84375 22.035156 L 119.703125 23.222656 C 119.65625 23.390625 119.441406 23.664062 119.398438 23.8125 C 119.328125 24.0625 119.363281 24.273438 119.429688 24.429688 C 119.539062 24.695312 119.75 24.953125 120.230469 24.96875 C 122.578125 25.035156 124.882812 25.605469 126.855469 26.742188 C 128.769531 27.847656 130.363281 29.496094 131.355469 31.738281 C 132.253906 33.773438 132.503906 36.183594 132.113281 38.460938 Z M 132.113281 38.460938 " fill-opacity="1" fill-rule="evenodd"/></g><path fill="#ffffff" d="M 62.046875 31.953125 C 62.125 31.941406 62.128906 31.871094 62.097656 31.769531 C 62.078125 31.773438 62.070312 31.832031 62.066406 31.851562 C 62.058594 31.878906 62.007812 31.957031 62.046875 31.953125 Z M 62.046875 31.953125 " fill-opacity="1" fill-rule="evenodd"/><path fill="#ffffff" d="M 61.8125 28.707031 C 61.75 29.085938 61.707031 29.480469 61.699219 29.875 C 61.691406 30.273438 61.714844 30.675781 61.773438 31.0625 C 61.796875 31.199219 62.03125 31.550781 62.097656 31.769531 C 62.101562 31.769531 62.105469 31.769531 62.109375 31.773438 C 62.425781 32.042969 61.046875 32.46875 60.8125 32.640625 C 59.875 33.367188 59.054688 34.414062 58.988281 35.46875 C 58.945312 36.148438 59.191406 36.828125 59.945312 37.386719 C 59.386719 36.757812 59.265625 36.128906 59.414062 35.535156 C 59.632812 34.671875 60.453125 33.925781 61.332031 33.453125 C 61.582031 33.3125 62.328125 33.035156 62.738281 32.75 C 62.996094 32.570312 63.136719 32.347656 63.195312 32.171875 C 63.234375 32.058594 63.238281 31.886719 63.207031 31.683594 C 63.167969 31.429688 63.027344 31.0625 63.007812 30.890625 C 62.964844 30.566406 62.953125 30.230469 62.957031 29.898438 C 62.960938 29.558594 62.984375 29.21875 63.027344 28.890625 C 63.210938 27.097656 63.914062 25.398438 64.996094 24.023438 C 66.121094 22.605469 67.636719 21.527344 69.492188 21.097656 C 67.511719 21.289062 65.78125 22.191406 64.453125 23.535156 C 63.09375 24.914062 62.191406 26.75 61.8125 28.707031 Z M 61.8125 28.707031 " fill-opacity="1" fill-rule="evenodd"/><path fill="#ffffff" d="M 64.902344 53.691406 C 64.519531 53.351562 64.167969 52.976562 63.832031 52.585938 C 63.496094 52.199219 63.179688 51.796875 62.890625 51.367188 C 62.304688 50.5 61.832031 49.558594 61.527344 48.554688 C 61.046875 46.992188 60.929688 45.34375 61.367188 43.769531 C 60.640625 45.316406 60.445312 47.050781 60.714844 48.746094 C 60.894531 49.890625 61.292969 51.007812 61.867188 52.011719 C 62.160156 52.523438 62.5 53.003906 62.894531 53.433594 C 63.292969 53.867188 63.742188 54.25 64.226562 54.574219 C 64.960938 55.0625 65.757812 55.425781 66.613281 55.617188 C 67.429688 55.800781 68.265625 55.828125 69.140625 55.695312 C 68.300781 55.601562 67.546875 55.347656 66.824219 55 C 66.117188 54.660156 65.488281 54.210938 64.902344 53.691406 Z M 64.902344 53.691406 " fill-opacity="1" fill-rule="evenodd"/><path fill="#ffffff" d="M 78.972656 59.800781 C 78.820312 59.175781 78.605469 58.578125 78.324219 58.007812 C 77.910156 57.160156 77.375 56.410156 76.710938 55.710938 C 77.117188 56.546875 77.355469 57.394531 77.535156 58.28125 C 77.660156 58.882812 77.722656 59.484375 77.792969 60.097656 C 77.839844 60.5 77.886719 60.902344 77.945312 61.304688 C 78.003906 61.71875 78.089844 62.121094 78.160156 62.53125 C 78.273438 63.1875 78.40625 63.789062 78.480469 64.445312 C 78.640625 63.988281 78.789062 63.566406 78.902344 63.09375 C 79.015625 62.625 79.089844 62.167969 79.125 61.691406 C 79.152344 61.375 79.15625 61.054688 79.132812 60.738281 C 79.105469 60.421875 79.050781 60.109375 78.972656 59.800781 Z M 78.972656 59.800781 " fill-opacity="1" fill-rule="evenodd"/><path fill="#ffffff" d="M 115.371094 14.335938 L 115.339844 14.273438 C 115.324219 14.246094 115.328125 14.25 115.304688 14.226562 L 115.300781 14.222656 L 115.363281 14.332031 Z M 115.371094 14.335938 " fill-opacity="1" fill-rule="evenodd"/><path fill="#ffffff" d="M 112.886719 10.875 C 113.539062 12.09375 113.855469 13.421875 114.445312 14.867188 C 114.496094 14.992188 114.640625 15.136719 114.867188 15.242188 C 115.117188 15.363281 115.558594 15.453125 115.695312 15.496094 L 118.082031 16.351562 C 119.128906 16.726562 120.042969 17.261719 120.835938 17.941406 C 121.664062 18.652344 122.363281 19.480469 122.851562 20.554688 C 122.613281 19.332031 122.132812 18.277344 121.410156 17.378906 C 120.671875 16.464844 119.6875 15.769531 118.578125 15.195312 C 118.15625 15.015625 117.730469 14.84375 117.296875 14.707031 C 116.863281 14.570312 116.417969 14.460938 115.96875 14.363281 C 115.886719 14.347656 115.546875 14.371094 115.371094 14.335938 C 115.378906 14.359375 115.390625 14.378906 115.398438 14.394531 L 115.363281 14.332031 C 115.289062 14.316406 115.246094 14.289062 115.273438 14.238281 C 115.28125 14.222656 115.292969 14.21875 115.300781 14.222656 C 114.566406 12.921875 114.085938 11.6875 113.285156 10.617188 C 112.746094 9.898438 112.070312 9.261719 111.089844 8.730469 C 111.941406 9.394531 112.476562 10.109375 112.886719 10.875 Z M 112.886719 10.875 " fill-opacity="1" fill-rule="evenodd"/><g clip-path="url(#id2)"><path fill="#ffffff" d="M 136.378906 36.53125 C 136.347656 35.667969 136.21875 34.800781 136.019531 33.949219 C 135.621094 32.261719 134.933594 30.636719 134.011719 29.1875 C 132.605469 26.992188 130.65625 25.222656 128.324219 24.261719 C 130.46875 25.4375 132.128906 27.363281 133.289062 29.609375 C 134.027344 31.042969 134.539062 32.605469 134.839844 34.199219 C 134.988281 34.996094 135.078125 35.796875 135.125 36.59375 C 135.171875 37.402344 135.175781 38.207031 135.113281 39 C 135.011719 40.230469 134.773438 41.417969 134.347656 42.542969 C 133.90625 43.699219 133.308594 44.773438 132.472656 45.730469 C 133.492188 44.910156 134.308594 43.929688 134.933594 42.820312 C 135.5625 41.691406 135.984375 40.445312 136.210938 39.140625 C 136.355469 38.289062 136.414062 37.414062 136.378906 36.53125 Z M 136.378906 36.53125 " fill-opacity="1" fill-rule="evenodd"/></g><g fill="#ffffff" fill-opacity="1"><g transform="translate(66.470968, 49.455124)"><g><path d="M 2.527344 0.796875 C 3.390625 1.382812 4.222656 1.347656 5.085938 0.691406 C 5.464844 0.378906 5.777344 0.0351562 6.054688 -0.347656 C 6.675781 -1.175781 7.195312 -2.042969 7.644531 -2.976562 C 8.648438 -4.980469 9.445312 -7.058594 10.136719 -9.203125 C 10.96875 -11.867188 11.761719 -14.566406 12.59375 -17.265625 C 12.800781 -17.992188 13.042969 -18.71875 13.390625 -19.410156 C 13.492188 -19.652344 13.597656 -19.859375 13.734375 -20.101562 C 13.804688 -20.203125 13.875 -20.414062 14.082031 -20.34375 C 14.21875 -20.308594 14.183594 -20.136719 14.21875 -20.03125 L 14.21875 -18.855469 C 14.148438 -17.296875 14.046875 -15.742188 14.011719 -14.183594 C 13.976562 -13.113281 13.941406 -11.902344 13.941406 -10.726562 C 13.90625 -6.125 15.777344 -4.046875 18.785156 -4.082031 C 22.175781 -4.117188 24.53125 -7.4375 26.5 -10.96875 C 26.5 -11.035156 26.570312 -11.140625 26.570312 -11.210938 C 26.640625 -11.417969 26.535156 -11.625 26.363281 -11.695312 C 26.191406 -11.761719 26.050781 -11.730469 25.949219 -11.589844 C 25.84375 -11.453125 25.742188 -11.3125 25.671875 -11.175781 C 23.628906 -7.300781 21.207031 -4.949219 18.855469 -4.949219 C 16.8125 -4.949219 14.632812 -6.332031 14.703125 -10.761719 C 14.738281 -13.421875 14.84375 -15.8125 15.015625 -18.335938 C 15.085938 -19.167969 15.085938 -19.996094 14.910156 -20.828125 C 14.738281 -21.554688 14.183594 -21.726562 13.632812 -21.242188 C 13.355469 -21 13.148438 -20.722656 12.972656 -20.414062 C 12.730469 -19.894531 12.488281 -19.375 12.28125 -18.820312 L 11.972656 -18.128906 C 11.761719 -18.199219 11.730469 -18.335938 11.660156 -18.507812 C 11.453125 -18.960938 11.277344 -19.445312 11.035156 -19.894531 C 10.691406 -20.65625 10.207031 -21.3125 9.550781 -21.867188 C 8.789062 -22.488281 7.957031 -22.625 7.023438 -22.382812 C 6.261719 -22.175781 5.605469 -21.761719 5.050781 -21.242188 C 4.011719 -20.238281 3.183594 -19.0625 2.59375 -17.714844 C 1.730469 -15.777344 1.039062 -13.734375 0.554688 -11.660156 C 0 -9.308594 -0.0703125 -6.917969 0.0351562 -4.496094 C 0.0703125 -3.355469 0.414062 -2.25 0.898438 -1.210938 C 1.28125 -0.414062 1.765625 0.277344 2.527344 0.796875 Z M 2.492188 -0.277344 C 2.074219 -0.691406 1.765625 -1.210938 1.523438 -1.765625 C 0.96875 -3.011719 0.796875 -4.289062 0.796875 -5.605469 L 0.796875 -6.746094 C 0.863281 -8.269531 0.933594 -9.824219 1.28125 -11.3125 C 1.800781 -13.492188 2.492188 -15.601562 3.425781 -17.644531 C 3.945312 -18.71875 4.601562 -19.6875 5.464844 -20.515625 C 5.917969 -21 6.46875 -21.382812 7.128906 -21.589844 C 7.820312 -21.832031 8.441406 -21.691406 9.03125 -21.277344 C 9.375 -21.035156 9.6875 -20.757812 9.929688 -20.414062 C 10.65625 -19.410156 11.105469 -18.234375 11.453125 -17.054688 C 11.554688 -16.746094 11.519531 -16.46875 11.453125 -16.191406 C 10.449219 -12.972656 9.582031 -9.6875 8.339844 -6.539062 C 7.75 -4.980469 7.058594 -3.425781 6.191406 -1.972656 C 5.8125 -1.347656 5.433594 -0.761719 4.949219 -0.277344 C 4.082031 0.621094 3.390625 0.621094 2.492188 -0.277344 Z M 2.492188 -0.277344 "/></g></g></g><g fill="#ffffff" fill-opacity="1"><g transform="translate(92.03811, 49.455124)"><g><path d="M 4.152344 -2.007812 C 5.984375 -2.25 7.679688 -2.90625 9.339844 -3.632812 C 12.144531 -4.949219 14.324219 -6.953125 16.054688 -9.480469 C 16.296875 -9.824219 16.503906 -10.242188 16.710938 -10.621094 C 16.78125 -10.761719 16.847656 -10.933594 16.847656 -11.070312 C 16.882812 -11.210938 16.8125 -11.347656 16.710938 -11.417969 C 16.570312 -11.488281 16.398438 -11.488281 16.261719 -11.382812 C 16.15625 -11.246094 16.054688 -11.070312 15.949219 -10.898438 C 15.707031 -10.519531 15.5 -10.066406 15.222656 -9.6875 C 12.835938 -6.261719 9.515625 -4.1875 5.535156 -3.078125 C 5.15625 -2.976562 4.773438 -2.90625 4.394531 -2.871094 C 4.117188 -2.835938 3.839844 -2.734375 3.5625 -2.90625 C 3.527344 -3.042969 3.597656 -3.148438 3.703125 -3.253906 C 4.117188 -3.804688 4.222656 -4.464844 4.1875 -5.15625 C 4.152344 -6.226562 3.839844 -7.230469 3.320312 -8.164062 C 3.011719 -8.753906 2.628906 -9.308594 2.25 -9.859375 C 1.832031 -10.519531 1.453125 -11.210938 1.246094 -12.003906 C 1.105469 -12.59375 1.210938 -13.078125 1.523438 -13.5625 C 2.042969 -14.359375 2.835938 -14.632812 3.769531 -14.53125 C 4.394531 -14.460938 4.980469 -14.21875 5.535156 -13.875 C 6.332031 -13.421875 6.710938 -12.730469 6.78125 -11.832031 L 6.78125 -11.382812 C 6.816406 -11.210938 6.917969 -11.070312 7.09375 -11.070312 C 7.265625 -11.035156 7.402344 -11.105469 7.472656 -11.277344 C 7.542969 -11.417969 7.578125 -11.589844 7.578125 -11.730469 C 7.613281 -12.664062 7.300781 -13.492188 6.574219 -14.117188 C 5.570312 -14.980469 4.394531 -15.394531 3.042969 -15.328125 C 1.246094 -15.222656 -0.0703125 -13.285156 0.484375 -11.625 C 0.761719 -10.828125 1.105469 -10.101562 1.589844 -9.410156 C 2.007812 -8.824219 2.351562 -8.234375 2.699219 -7.613281 C 3.113281 -6.816406 3.320312 -5.949219 3.390625 -5.050781 C 3.460938 -3.980469 2.871094 -3.285156 1.800781 -3.183594 C 1.523438 -3.148438 1.210938 -3.21875 0.933594 -3.21875 L 0.277344 -3.21875 C 0 -3.183594 -0.105469 -2.800781 0.0703125 -2.59375 C 0.277344 -2.351562 0.554688 -2.25 0.832031 -2.214844 C 1.9375 -2.042969 3.042969 -1.867188 4.152344 -2.007812 Z M 4.152344 -2.007812 "/></g></g></g><g fill="#ffffff" fill-opacity="1"><g transform="translate(107.848912, 49.455124)"><g><path d="M 2.558594 -0.898438 C 2.769531 -0.96875 2.871094 -1.175781 2.835938 -1.453125 C 2.835938 -1.523438 2.800781 -1.625 2.800781 -1.730469 C 2.699219 -2.179688 2.628906 -2.664062 2.527344 -3.148438 C 2.316406 -3.875 2.316406 -4.601562 2.351562 -5.328125 C 2.351562 -5.570312 2.421875 -5.8125 2.492188 -6.089844 C 2.527344 -6.261719 2.664062 -6.332031 2.835938 -6.296875 C 3.5625 -6.125 4.289062 -5.984375 4.980469 -5.8125 C 6.46875 -5.398438 7.992188 -5.257812 9.550781 -5.222656 C 10.65625 -5.191406 11.695312 -5.398438 12.730469 -5.8125 C 14.945312 -6.746094 16.8125 -8.164062 18.300781 -10.035156 L 18.925781 -10.898438 C 19.027344 -11.070312 19.027344 -11.277344 18.855469 -11.417969 C 18.71875 -11.554688 18.476562 -11.554688 18.335938 -11.382812 C 18.164062 -11.175781 17.957031 -10.96875 17.78125 -10.726562 C 16.539062 -9.066406 14.980469 -7.785156 13.113281 -6.886719 C 11.730469 -6.226562 10.34375 -5.882812 8.925781 -6.054688 C 6.886719 -6.191406 4.980469 -6.539062 3.183594 -7.058594 C 3.078125 -7.09375 2.941406 -7.128906 2.835938 -7.230469 C 2.769531 -7.265625 2.769531 -7.402344 2.871094 -7.472656 C 3.011719 -7.542969 3.183594 -7.613281 3.390625 -7.679688 C 3.839844 -7.855469 4.289062 -7.957031 4.738281 -8.128906 C 5.984375 -8.648438 7.09375 -9.375 7.921875 -10.519531 C 8.234375 -10.933594 8.476562 -11.382812 8.546875 -11.902344 C 8.753906 -13.042969 7.957031 -13.839844 6.816406 -13.597656 C 6.261719 -13.457031 5.777344 -13.214844 5.363281 -12.90625 C 4.773438 -12.453125 4.253906 -11.902344 3.804688 -11.3125 C 3.253906 -10.550781 2.835938 -9.757812 2.421875 -8.925781 C 2.351562 -8.71875 2.214844 -8.511719 2.109375 -8.339844 C 2.042969 -8.234375 1.765625 -8.269531 1.695312 -8.40625 C 1.695312 -8.476562 1.660156 -8.511719 1.660156 -8.582031 C 1.558594 -9.339844 1.488281 -10.101562 1.417969 -10.863281 C 1.382812 -11.140625 1.488281 -11.347656 1.695312 -11.554688 C 3.253906 -13.113281 4.601562 -14.84375 6.054688 -16.503906 C 7.785156 -18.507812 9.167969 -20.722656 10.277344 -23.109375 C 10.828125 -24.253906 11.175781 -25.429688 11.277344 -26.675781 C 11.417969 -28.4375 10.34375 -29.789062 8.613281 -30.066406 C 8.097656 -30.167969 7.613281 -30.132812 7.09375 -29.996094 C 6.089844 -29.753906 5.292969 -29.234375 4.53125 -28.578125 C 3.285156 -27.46875 2.492188 -26.121094 2.007812 -24.5625 C 1.074219 -21.832031 0.621094 -18.992188 0.449219 -16.121094 C 0.347656 -14.496094 0.554688 -12.871094 0.449219 -11.246094 C 0.449219 -11.105469 0.484375 -11.003906 0.519531 -10.863281 C 0.726562 -10.101562 0.726562 -9.273438 0.832031 -8.511719 C 0.832031 -8.199219 0.726562 -8.097656 0.414062 -8.097656 L -0.347656 -8.097656 C -0.484375 -8.097656 -0.65625 -8.097656 -0.796875 -8.0625 C -0.933594 -8.027344 -1.039062 -7.921875 -1.039062 -7.785156 C -1.074219 -7.679688 -1.039062 -7.542969 -0.933594 -7.472656 C -0.761719 -7.371094 -0.589844 -7.300781 -0.414062 -7.230469 C -0.0703125 -7.128906 0.277344 -7.023438 0.621094 -6.953125 C 0.898438 -6.886719 1.074219 -6.710938 1.105469 -6.433594 L 1.417969 -4.636719 C 1.523438 -3.804688 1.625 -2.941406 1.765625 -2.109375 C 1.832031 -1.800781 1.902344 -1.523438 2.007812 -1.28125 C 2.109375 -0.96875 2.351562 -0.796875 2.558594 -0.898438 Z M 1.453125 -12.488281 C 1.316406 -12.558594 1.28125 -12.695312 1.28125 -12.800781 C 1.246094 -13.179688 1.210938 -13.5625 1.210938 -13.976562 C 1.246094 -17.023438 1.558594 -20.066406 2.351562 -23.042969 C 2.628906 -23.941406 2.90625 -24.839844 3.320312 -25.671875 C 3.945312 -26.882812 4.808594 -27.886719 5.949219 -28.648438 C 6.433594 -28.921875 6.917969 -29.132812 7.472656 -29.269531 C 8.0625 -29.375 8.613281 -29.304688 9.132812 -29.097656 C 9.964844 -28.75 10.378906 -28.09375 10.449219 -27.226562 C 10.484375 -26.433594 10.34375 -25.707031 10.136719 -24.945312 C 9.929688 -24.320312 9.6875 -23.699219 9.375 -23.078125 C 8.269531 -20.863281 6.917969 -18.75 5.292969 -16.847656 C 4.253906 -15.601562 3.21875 -14.359375 2.144531 -13.113281 C 1.9375 -12.871094 1.765625 -12.59375 1.453125 -12.488281 Z M 3.632812 -8.613281 C 3.5625 -8.613281 3.425781 -8.546875 3.390625 -8.648438 C 3.355469 -8.71875 3.320312 -8.855469 3.355469 -8.925781 C 3.910156 -10.101562 4.566406 -11.175781 5.570312 -12.003906 C 5.984375 -12.386719 6.433594 -12.664062 6.988281 -12.765625 C 7.472656 -12.90625 7.75 -12.664062 7.75 -12.109375 C 7.714844 -12.003906 7.714844 -11.832031 7.644531 -11.660156 C 7.507812 -11.382812 7.335938 -11.070312 7.128906 -10.828125 C 6.226562 -9.722656 5.015625 -8.996094 3.632812 -8.613281 Z M 3.632812 -8.613281 "/></g></g></g></svg>